<svg width="40" height="40" viewBox="0 0 40 40" fill="none" xmlns="http://www.w3.org/2000/svg">
<g id="bicycle">
<rect id="Rectangle 47" width="40" height="40" rx="10" fill="#FFF0DC"/>
<g id="Group 112">
<g id="Group 25">
<g id="Bicycle">
<g id="Group 38">
<path id="Shape" d="M29.1455 23.4826L29.1251 23.3847L29.1455 23.4826ZM29.2229 23.3642L29.1251 23.3847L29.1251 23.3847L29.2229 23.3642ZM21.7607 25.0284L21.7811 25.1263L21.7811 25.1263L21.7607 25.0284ZM21.7197 24.8327L21.6992 24.7348H21.6992L21.7197 24.8327ZM29.1046 23.2868L29.0841 23.1889L29.1046 23.2868ZM29.1228 21.7181L29.2228 21.7159C29.2215 21.6607 29.1758 21.6169 29.1206 21.6182L29.1228 21.7181ZM21.412 21.8913L21.4097 21.7913C21.3545 21.7925 21.3108 21.8383 21.312 21.8935L21.412 21.8913ZM29.1273 21.9181L29.1295 22.0181C29.1561 22.0175 29.1813 22.0064 29.1996 21.9872C29.2179 21.968 29.2279 21.9424 29.2273 21.9158L29.1273 21.9181ZM21.4165 22.0912L21.3165 22.0935C21.3171 22.12 21.3282 22.1452 21.3474 22.1635C21.3665 22.1818 21.3922 22.1918 21.4187 22.1912L21.4165 22.0912ZM29.166 23.5805C29.2741 23.5578 29.3434 23.4518 29.3208 23.3437L29.1251 23.3847V23.3847L29.166 23.5805ZM21.7811 25.1263L29.166 23.5805L29.1251 23.3847L21.7402 24.9305L21.7811 25.1263ZM21.5444 24.9715C21.567 25.0796 21.673 25.1489 21.7811 25.1263L21.7402 24.9305L21.7402 24.9305L21.5444 24.9715ZM21.6992 24.7348C21.5911 24.7574 21.5218 24.8634 21.5444 24.9715L21.7402 24.9305H21.7402L21.6992 24.7348ZM29.0841 23.1889L21.6992 24.7348L21.7402 24.9305L29.1251 23.3847L29.0841 23.1889ZM29.3208 23.3437C29.2982 23.2356 29.1922 23.1663 29.0841 23.1889L29.1251 23.3847L29.1251 23.3847L29.3208 23.3437ZM29.1206 21.6182L21.4097 21.7913L21.4142 21.9913L29.1251 21.8181L29.1206 21.6182ZM29.2273 21.9158L29.2228 21.7159L29.0228 21.7204L29.0273 21.9203L29.2273 21.9158ZM21.4187 22.1912L29.1295 22.0181L29.1251 21.8181L21.4142 21.9913L21.4187 22.1912ZM21.312 21.8935L21.3165 22.0935L21.5165 22.089L21.512 21.889L21.312 21.8935Z" fill="#7530FF"/>
<path id="Oval" fill-rule="evenodd" clip-rule="evenodd" d="M29.1252 23.3847C28.6926 23.3847 28.3419 23.034 28.3419 22.6014C28.3419 22.1688 28.6926 21.8181 29.1252 21.8181C29.5578 21.8181 29.9085 22.1688 29.9085 22.6014C29.9085 23.034 29.5578 23.3847 29.1252 23.3847Z" stroke="#7530FF" stroke-width="0.2" stroke-linejoin="round"/>
<path id="Oval_2" fill-rule="evenodd" clip-rule="evenodd" d="M21.4142 24.9678C20.5922 24.9678 19.9259 24.3015 19.9259 23.4796C19.9259 22.6576 20.5922 21.9913 21.4142 21.9913C22.2361 21.9913 22.9024 22.6576 22.9024 23.4796C22.9024 24.3015 22.2361 24.9678 21.4142 24.9678Z" stroke="#7530FF" stroke-width="0.2" stroke-linejoin="round"/>
</g>
<g id="Group 36">
<path id="Oval_3" fill-rule="evenodd" clip-rule="evenodd" d="M10.8747 28.4762C7.63018 28.4762 5 25.846 5 22.6015C5 19.357 7.63018 16.7268 10.8747 16.7268C14.1192 16.7268 16.7493 19.357 16.7493 22.6015C16.7493 25.846 14.1192 28.4762 10.8747 28.4762Z" stroke="#7530FF" stroke-width="0.8"/>
<path id="Oval_4" fill-rule="evenodd" clip-rule="evenodd" d="M10.8747 27.3159C8.27106 27.3159 6.1604 25.2052 6.1604 22.6016C6.1604 19.998 8.27106 17.8873 10.8747 17.8873C13.4783 17.8873 15.589 19.998 15.589 22.6016C15.589 25.2052 13.4783 27.3159 10.8747 27.3159Z" stroke="#7530FF" stroke-width="0.2" stroke-linejoin="round"/>
<path id="Oval_5" fill-rule="evenodd" clip-rule="evenodd" d="M10.8748 23.3848C10.4422 23.3848 10.0916 23.0341 10.0916 22.6015C10.0916 22.1689 10.4422 21.8182 10.8748 21.8182C11.3074 21.8182 11.6581 22.1689 11.6581 22.6015C11.6581 23.0341 11.3074 23.3848 10.8748 23.3848Z" stroke="#7530FF" stroke-width="0.2" stroke-linejoin="round"/>
</g>
<g id="Group 39">
<path id="Oval_6" fill-rule="evenodd" clip-rule="evenodd" d="M29.1255 28.4763C25.881 28.4763 23.2509 25.8461 23.2509 22.6016C23.2509 19.3571 25.881 16.7269 29.1255 16.7269C32.37 16.7269 35.0002 19.3571 35.0002 22.6016C35.0002 25.8461 32.37 28.4763 29.1255 28.4763Z" stroke="#7530FF" stroke-width="0.8"/>
<path id="Path" d="M25.8904 25.9352C26.7435 26.7884 27.9221 27.316 29.2239 27.316C31.8275 27.316 33.9382 25.2054 33.9382 22.6017C33.9382 19.9981 31.8275 17.8875 29.2239 17.8875C28.1795 17.8875 27.2145 18.227 26.4332 18.8018" stroke="#7530FF" stroke-width="0.2" stroke-linejoin="round"/>
</g>
<g id="Group 37">
<path id="Path 9" d="M10.8744 22.5623L14.6663 12.6929L12.433 12.0502C11.7673 11.8586 11.0701 12.2321 10.8607 12.8924C10.6515 13.5522 11.0072 14.2583 11.6618 14.483L12.3801 14.7294" stroke="#0E1566" stroke-width="0.8" stroke-linecap="round" stroke-linejoin="round"/>
<path id="Path 10" fill-rule="evenodd" clip-rule="evenodd" d="M23.5848 15.275L29.1252 22.6014L21.3686 23.4795L13.9716 14.5662L23.5848 15.275Z" stroke="#0E1566" stroke-width="0.8" stroke-linecap="round" stroke-linejoin="round"/>
<path id="Path 11" d="M21.4147 23.4252L24.0661 13.5543" stroke="#0E1566" stroke-width="0.3" stroke-linecap="round" stroke-linejoin="round"/>
<g id="Path 65">
<g id="mask 9">
<path id="Vector" d="M24.8252 14.0619C25.303 14.0619 26.7062 13.5146 26.3124 12.9008C25.9186 12.287 21.9697 12.8974 21.6918 13.3194C21.414 13.7414 22.0886 13.8126 22.6389 13.7439C23.1891 13.6752 24.3475 14.0619 24.8252 14.0619Z" fill="white"/>
</g>
<path id="Path 12" d="M24.8252 14.0619C25.303 14.0619 26.7062 13.5146 26.3124 12.9008C25.9186 12.287 21.9697 12.8974 21.6918 13.3194C21.414 13.7414 22.0886 13.8126 22.6389 13.7439C23.1891 13.6752 24.3475 14.0619 24.8252 14.0619Z" fill="#0E1566"/>
<path id="Path 66" opacity="0.5" fill-rule="evenodd" clip-rule="evenodd" d="M25.9123 12.5157H23.3833L21.6274 13.7382C23.8185 13.954 25.2468 13.5465 25.9123 12.5157Z" fill="#0E1566"/>
</g>
</g>
</g>
</g>
</g>
</g>
</svg>
