<svg width="131" height="35" viewBox="0 0 131 35" fill="none" xmlns="http://www.w3.org/2000/svg">
<circle cx="45.4821" cy="23.2968" r="8.02626" fill="#ECEAEC"/>
<circle cx="11.5935" cy="23.2968" r="8.02626" fill="#ECEAEC"/>
<path fill-rule="evenodd" clip-rule="evenodd" d="M0 23.2968C0 29.6896 5.20107 34.8903 11.5935 34.8903C17.9859 34.8903 23.1869 29.6896 23.1869 23.2968C23.1869 16.9039 17.9859 11.7033 11.5935 11.7033C5.20107 11.7033 0 16.9039 0 23.2968ZM1.78366 23.2968C1.78366 17.8876 6.1843 13.487 11.5935 13.487C17.0026 13.487 21.4033 17.8876 21.4033 23.2968C21.4033 28.706 17.0026 33.1066 11.5935 33.1066C6.1843 33.1066 1.78366 28.706 1.78366 23.2968Z" fill="#5D5360"/>
<path d="M50.5268 19.5132L49.2656 18.2519C48.9171 17.9034 48.9174 17.3389 49.2656 16.9907C49.6138 16.6425 50.1783 16.6422 50.5268 16.9907L51.7881 18.2519C52.1366 18.6005 52.1363 19.1648 51.7881 19.5132C51.4397 19.8614 50.8754 19.8617 50.5268 19.5132Z" fill="#FFC269"/>
<path d="M40.4372 29.6028L39.176 28.3415C38.8275 27.993 38.8278 27.4285 39.176 27.0803C39.5242 26.7321 40.0887 26.7318 40.4372 27.0803L41.6985 28.3415C42.047 28.6901 42.0467 29.2546 41.6985 29.6028C41.3503 29.951 40.7858 29.9513 40.4372 29.6028Z" fill="#FFC269"/>
<path fill-rule="evenodd" clip-rule="evenodd" d="M37.2843 15.099C32.7638 19.6194 32.7641 26.9744 37.2843 31.4946C41.8044 36.0147 49.1594 36.015 53.6799 31.4946C58.2003 26.9741 58.2 19.6191 53.6799 15.099C49.1597 10.5788 41.8047 10.5785 37.2843 15.099ZM38.5454 16.3602C42.3703 12.5353 48.5937 12.5353 52.4186 16.3602C56.2436 20.185 56.2436 26.4085 52.4186 30.2335C48.5937 34.0584 42.3703 34.0584 38.5454 30.2335C34.7205 26.4085 34.7205 20.1851 38.5454 16.3602Z" fill="#5D5360"/>
<path fill-rule="evenodd" clip-rule="evenodd" d="M39.0929 6.12392L37.9713 5.64172L37.3495 6.58438L22.0669 10.6062L21.5295 9.08343C21.3648 8.61929 20.858 8.37406 20.3912 8.53959C19.927 8.70333 19.6594 9.14574 19.8232 9.61032L20.4656 11.4304L11.3529 22.2001C11.7582 22.7979 12.0059 23.4985 12.1005 24.224L24.9113 25.0781C24.9309 25.0798 24.9507 25.0802 24.9703 25.0802H24.9705H24.9714C25.0883 25.0802 25.2005 25.057 25.3037 25.0153C25.3109 25.0124 25.3174 25.0076 25.3238 25.0028C25.3296 24.9984 25.3354 24.9941 25.3418 24.9911C25.4325 24.949 25.517 24.8963 25.5885 24.8273C25.5903 24.8255 25.5925 24.8243 25.5947 24.8232C25.5954 24.8228 25.5961 24.8224 25.5968 24.8221C25.5983 24.8212 25.5998 24.8202 25.6011 24.8189L39.2953 11.1247L44.6625 23.648L46.3016 22.9452L39.0929 6.12392ZM24.6261 23.272L13.4154 22.5247L21.1536 13.3794L24.6403 23.2578L24.6261 23.272ZM22.6628 12.2944L26.0389 21.8592L38.5387 9.3593L38.0601 8.24242L22.6628 12.2944Z" fill="url(#paint0_linear)"/>
<path d="M12.4853 17.0542H10.7016C10.2087 17.0542 9.80981 16.6549 9.80981 16.1623C9.80981 15.6699 10.2086 15.2705 10.7016 15.2705H12.4853C12.9782 15.2705 13.3771 15.6698 13.3771 16.1623C13.377 16.6548 12.9782 17.0542 12.4853 17.0542Z" fill="#FFC269"/>
<path d="M12.4853 31.323H10.7016C10.2087 31.323 9.80981 30.9238 9.80981 30.4312C9.80981 29.9386 10.2086 29.5394 10.7016 29.5394H12.4853C12.9782 29.5394 13.3771 29.9386 13.3771 30.4312C13.3771 30.9238 12.9782 31.323 12.4853 31.323Z" fill="#FFC269"/>
<circle cx="24.9705" cy="24.1886" r="2.67538" fill="#C8C5C9"/>
<path d="M25.6673 23.6316C25.359 23.2475 24.799 23.1839 24.4132 23.4922C24.0291 23.7997 23.9664 24.361 24.2738 24.7454L27.8411 29.2045L28.9663 27.7558L25.6673 23.6316Z" fill="#DAD8DB"/>
<path d="M30.3214 29.5393H28.5377C28.0451 29.5393 27.6459 29.1401 27.6459 28.6475C27.6459 28.1549 28.0451 27.7557 28.5377 27.7557H30.3214C30.8139 27.7557 31.2132 28.1549 31.2132 28.6475C31.2132 29.1401 30.8139 29.5393 30.3214 29.5393Z" fill="#5D5360"/>
<path d="M38.6071 4.99042L39.8264 4.38082C41.1145 3.73677 41.9148 2.44177 41.9148 1.00176C41.9148 0.509303 41.516 0.109924 41.023 0.109924C40.53 0.109924 40.1312 0.509192 40.1312 1.00176C40.1312 1.76206 39.7088 2.44523 39.0286 2.78542L37.0569 3.77133C36.6345 3.98255 36.4498 4.48637 36.6362 4.92053L37.3495 6.5847L39.0929 6.12424L38.6071 4.99042Z" fill="#5D5360"/>
<path d="M20.1482 5.16052L18.4656 5.75441L19.8232 9.61032L21.5295 9.08342L20.1482 5.16052Z" fill="#4B3F4E"/>
<path d="M22.4495 5.67134L18.8995 6.68567C17.9197 6.96567 16.9442 6.22989 16.9442 5.21088C16.9442 4.36375 17.631 3.67712 18.478 3.67712H22.1702C22.7317 3.67712 23.1868 4.13235 23.1868 4.6938C23.187 5.14768 22.886 5.54661 22.4495 5.67134Z" fill="#5D5360"/>
<path d="M45.482 24.1886C44.9916 24.1886 44.5902 23.7873 44.5902 23.2967C44.5902 22.8063 44.9915 22.4049 45.482 22.4049C45.9725 22.4049 46.3739 22.8062 46.3739 23.2967C46.3739 23.7872 45.9725 24.1886 45.482 24.1886Z" fill="#5D5360"/>
<path d="M12.1005 24.2242L14.9643 24.4151C15.0818 24.0614 15.1607 23.6899 15.1607 23.2968C15.1607 23.0706 15.1344 22.851 15.0941 22.6366L13.4154 22.5246L14.5013 21.2414C14.1533 20.75 13.6826 20.3572 13.1357 20.0933L11.3529 22.2002C11.7581 22.798 12.0058 23.4986 12.1005 24.2242Z" fill="#5BB04B"/>
<circle cx="11.5935" cy="23.2967" r="1.78366" fill="#C8C5C9"/>
<path d="M36.0148 8.78054L38.06 8.24228L37.3495 6.58435L35.3984 7.09776C35.597 7.63769 35.8283 8.26792 36.0148 8.78054Z" fill="#5BB04B"/>
<path d="M68.0156 23V11.625H72C73.3802 11.625 74.4271 11.8906 75.1406 12.4219C75.8542 12.9479 76.2109 13.7214 76.2109 14.7422C76.2109 15.2995 76.0677 15.7917 75.7812 16.2188C75.4948 16.6406 75.0964 16.9505 74.5859 17.1484C75.1693 17.2943 75.6276 17.5885 75.9609 18.0312C76.2995 18.474 76.4688 19.0156 76.4688 19.6562C76.4688 20.75 76.1198 21.5781 75.4219 22.1406C74.724 22.7031 73.7292 22.9896 72.4375 23H68.0156ZM70.3594 18.0469V21.1172H72.3672C72.9193 21.1172 73.349 20.987 73.6562 20.7266C73.9688 20.4609 74.125 20.0964 74.125 19.6328C74.125 18.5911 73.5859 18.0625 72.5078 18.0469H70.3594ZM70.3594 16.3906H72.0938C73.276 16.3698 73.8672 15.8984 73.8672 14.9766C73.8672 14.4609 73.7161 14.0911 73.4141 13.8672C73.1172 13.638 72.6458 13.5234 72 13.5234H70.3594V16.3906ZM80.7887 23H78.5231V14.5469H80.7887V23ZM78.3903 12.3594C78.3903 12.0208 78.5023 11.7422 78.7262 11.5234C78.9554 11.3047 79.2653 11.1953 79.6559 11.1953C80.0414 11.1953 80.3486 11.3047 80.5778 11.5234C80.807 11.7422 80.9216 12.0208 80.9216 12.3594C80.9216 12.7031 80.8044 12.9844 80.57 13.2031C80.3408 13.4219 80.0361 13.5312 79.6559 13.5312C79.2757 13.5312 78.9684 13.4219 78.7341 13.2031C78.5049 12.9844 78.3903 12.7031 78.3903 12.3594ZM86.8666 23.1562C85.627 23.1562 84.6166 22.776 83.8353 22.0156C83.0593 21.2552 82.6713 20.2422 82.6713 18.9766V18.7578C82.6713 17.9089 82.8353 17.151 83.1634 16.4844C83.4916 15.8125 83.9551 15.2969 84.5541 14.9375C85.1582 14.5729 85.8457 14.3906 86.6166 14.3906C87.7728 14.3906 88.6817 14.7552 89.3431 15.4844C90.0098 16.2135 90.3431 17.2474 90.3431 18.5859V19.5078H84.9603C85.0332 20.0599 85.252 20.5026 85.6166 20.8359C85.9864 21.1693 86.4525 21.3359 87.015 21.3359C87.8848 21.3359 88.5645 21.0208 89.0541 20.3906L90.1634 21.6328C89.8249 22.112 89.3666 22.487 88.7884 22.7578C88.2103 23.0234 87.5697 23.1562 86.8666 23.1562ZM86.6088 16.2188C86.1608 16.2188 85.7963 16.3698 85.515 16.6719C85.239 16.974 85.0619 17.4062 84.9838 17.9688H88.1244V17.7891C88.114 17.2891 87.9785 16.9036 87.7181 16.6328C87.4577 16.3568 87.0879 16.2188 86.6088 16.2188ZM95.4678 21.3359C95.8845 21.3359 96.223 21.2214 96.4834 20.9922C96.7439 20.763 96.8793 20.4583 96.8897 20.0781H99.0069C99.0017 20.651 98.8454 21.1771 98.5381 21.6562C98.2308 22.1302 97.809 22.5 97.2725 22.7656C96.7412 23.026 96.1527 23.1562 95.5069 23.1562C94.2985 23.1562 93.3454 22.7734 92.6475 22.0078C91.9496 21.237 91.6006 20.1745 91.6006 18.8203V18.6719C91.6006 17.3698 91.947 16.3307 92.6397 15.5547C93.3324 14.7786 94.2829 14.3906 95.4912 14.3906C96.5485 14.3906 97.3949 14.6927 98.0303 15.2969C98.6709 15.8958 98.9965 16.6953 99.0069 17.6953H96.8897C96.8793 17.2578 96.7439 16.9036 96.4834 16.6328C96.223 16.3568 95.8793 16.2188 95.4522 16.2188C94.9261 16.2188 94.5277 16.4115 94.2569 16.7969C93.9912 17.1771 93.8584 17.7969 93.8584 18.6562V18.8906C93.8584 19.7604 93.9912 20.3854 94.2569 20.7656C94.5225 21.1458 94.9261 21.3359 95.4678 21.3359ZM103.772 19.8047L105.335 14.5469H107.757L104.358 24.3125L104.171 24.7578C103.665 25.862 102.832 26.4141 101.671 26.4141C101.342 26.4141 101.009 26.3646 100.671 26.2656V24.5547L101.014 24.5625C101.441 24.5625 101.759 24.4974 101.967 24.3672C102.181 24.237 102.348 24.0208 102.467 23.7188L102.733 23.0234L99.7722 14.5469H102.202L103.772 19.8047ZM112.373 21.3359C112.79 21.3359 113.129 21.2214 113.389 20.9922C113.649 20.763 113.785 20.4583 113.795 20.0781H115.912C115.907 20.651 115.751 21.1771 115.444 21.6562C115.136 22.1302 114.715 22.5 114.178 22.7656C113.647 23.026 113.058 23.1562 112.412 23.1562C111.204 23.1562 110.251 22.7734 109.553 22.0078C108.855 21.237 108.506 20.1745 108.506 18.8203V18.6719C108.506 17.3698 108.853 16.3307 109.545 15.5547C110.238 14.7786 111.189 14.3906 112.397 14.3906C113.454 14.3906 114.301 14.6927 114.936 15.2969C115.577 15.8958 115.902 16.6953 115.912 17.6953H113.795C113.785 17.2578 113.649 16.9036 113.389 16.6328C113.129 16.3568 112.785 16.2188 112.358 16.2188C111.832 16.2188 111.433 16.4115 111.162 16.7969C110.897 17.1771 110.764 17.7969 110.764 18.6562V18.8906C110.764 19.7604 110.897 20.3854 111.162 20.7656C111.428 21.1458 111.832 21.3359 112.373 21.3359ZM119.904 23H117.639V11H119.904V23ZM121.74 18.6953C121.74 17.8568 121.901 17.1094 122.224 16.4531C122.547 15.7969 123.011 15.2891 123.615 14.9297C124.224 14.5703 124.93 14.3906 125.732 14.3906C126.873 14.3906 127.803 14.7396 128.521 15.4375C129.245 16.1354 129.649 17.0833 129.732 18.2812L129.748 18.8594C129.748 20.1562 129.386 21.1979 128.662 21.9844C127.938 22.7656 126.967 23.1562 125.748 23.1562C124.529 23.1562 123.555 22.7656 122.826 21.9844C122.102 21.2031 121.74 20.1406 121.74 18.7969V18.6953ZM123.998 18.8594C123.998 19.6615 124.149 20.276 124.451 20.7031C124.753 21.125 125.185 21.3359 125.748 21.3359C126.295 21.3359 126.722 21.1276 127.029 20.7109C127.336 20.2891 127.49 19.6172 127.49 18.6953C127.49 17.9089 127.336 17.2995 127.029 16.8672C126.722 16.4349 126.289 16.2188 125.732 16.2188C125.18 16.2188 124.753 16.4349 124.451 16.8672C124.149 17.2943 123.998 17.9583 123.998 18.8594Z" fill="#0E1566"/>
<defs>
<linearGradient id="paint0_linear" x1="11.3529" y1="5.64172" x2="11.3529" y2="25.0802" gradientUnits="userSpaceOnUse">
<stop stop-color="#8AD478"/>
<stop offset="1" stop-color="#52A943"/>
</linearGradient>
</defs>
</svg>
